<svg xmlns="http://www.w3.org/2000/svg" viewBox="0 0 1280 320" width="1280" height="320"><rect width="1280" height="320" rx="16" fill="#F3F5EF"/><rect x="0.5" y="0.5" width="1279" height="319" rx="16" fill="none" stroke="#D3D8CF"/><g transform="translate(940 20) scale(4.375)"><path d="M18 10H10V54H18M46 10H54V54H46" fill="none" stroke="#D3D8CF" stroke-width="4" stroke-linecap="square" stroke-linejoin="miter"/><rect x="25" y="25" width="14" height="14" fill="#3A6600"/></g><g transform="translate(72 50) scale(1.5)"><g transform="translate(0 0) scale(1.125)"><path d="M18 10H10V54H18M46 10H54V54H46" fill="none" stroke="#0C0F14" stroke-width="6" stroke-linecap="square" stroke-linejoin="miter"/><rect x="25" y="25" width="14" height="14" fill="#3A6600"/></g><path d="M106.97 52.56Q102.88 52.56 99.8 51.02Q96.72 49.48 95.04 46.71Q93.36 43.94 93.36 40.24V32.96Q93.36 29.21 95.04 26.46Q96.72 23.72 99.8 22.18Q102.88 20.64 106.97 20.64Q113.07 20.64 116.71 23.72Q120.35 26.8 120.58 32.12H112.18Q112.01 30.16 110.64 29.04Q109.26 27.92 106.97 27.92Q104.45 27.92 103.1 29.21Q101.76 30.5 101.76 32.96V40.24Q101.76 42.65 103.1 43.96Q104.45 45.28 106.97 45.28Q109.26 45.28 110.64 44.19Q112.01 43.1 112.18 41.08H120.58Q120.35 46.4 116.71 49.48Q113.07 52.56 106.97 52.56ZM138.16 52.56Q134.07 52.56 131.05 51.02Q128.02 49.48 126.37 46.71Q124.72 43.94 124.72 40.24V32.96Q124.72 29.26 126.37 26.49Q128.02 23.72 131.05 22.18Q134.07 20.64 138.16 20.64Q142.3 20.64 145.3 22.18Q148.3 23.72 149.95 26.49Q151.6 29.26 151.6 32.96V40.24Q151.6 43.94 149.95 46.71Q148.3 49.48 145.3 51.02Q142.3 52.56 138.16 52.56ZM138.16 45.28Q140.62 45.28 141.91 43.96Q143.2 42.65 143.2 40.24V32.96Q143.2 30.5 141.91 29.21Q140.62 27.92 138.16 27.92Q135.75 27.92 134.44 29.21Q133.12 30.5 133.12 32.96V40.24Q133.12 42.65 134.44 43.96Q135.75 45.28 138.16 45.28ZM166.33 52.56Q161.68 52.56 158.88 49.31Q156.08 46.06 156.08 40.52V32.68Q156.08 27.19 158.88 23.92Q161.68 20.64 166.33 20.64Q170.14 20.64 172.32 22.85Q174.5 25.06 174.5 29.04L172.54 27.08H174.5L174.22 19.52V11.12H182.62V52H174.5V46.12H172.54L174.5 44.16Q174.5 48.14 172.32 50.35Q170.14 52.56 166.33 52.56ZM169.35 45.28Q171.65 45.28 172.94 43.96Q174.22 42.65 174.22 40.24V32.96Q174.22 30.55 172.94 29.24Q171.65 27.92 169.35 27.92Q167 27.92 165.74 29.24Q164.48 30.55 164.48 32.96V40.24Q164.48 42.65 165.74 43.96Q167 45.28 169.35 45.28ZM200.94 52.56Q196.85 52.56 193.8 51.02Q190.74 49.48 189.09 46.71Q187.44 43.94 187.44 40.24V32.96Q187.44 29.26 189.09 26.49Q190.74 23.72 193.8 22.18Q196.85 20.64 200.94 20.64Q205.02 20.64 208.02 22.18Q211.02 23.72 212.67 26.49Q214.32 29.26 214.32 32.96V38.56H195.45V40.24Q195.45 43.15 196.85 44.64Q198.25 46.12 201.05 46.12Q203.01 46.12 204.21 45.45Q205.42 44.78 205.81 43.6H214.04Q213.03 47.63 209.48 50.1Q205.92 52.56 200.94 52.56ZM206.31 34.25V32.85Q206.31 29.99 205 28.48Q203.68 26.97 200.94 26.97Q198.19 26.97 196.82 28.54Q195.45 30.1 195.45 32.96V33.8L206.87 33.69ZM237.28 52Q234.03 52 231.57 50.63Q229.1 49.26 227.73 46.79Q226.36 44.33 226.36 41.08V18.68H216.84V11.12H234.76V41.08Q234.76 42.59 235.68 43.52Q236.61 44.44 238.12 44.44H247.08V52ZM263.6 52.56Q259.51 52.56 256.49 51.02Q253.46 49.48 251.81 46.71Q250.16 43.94 250.16 40.24V32.96Q250.16 29.26 251.81 26.49Q253.46 23.72 256.49 22.18Q259.51 20.64 263.6 20.64Q267.74 20.64 270.74 22.18Q273.74 23.72 275.39 26.49Q277.04 29.26 277.04 32.96V40.24Q277.04 43.94 275.39 46.71Q273.74 49.48 270.74 51.02Q267.74 52.56 263.6 52.56ZM263.6 45.28Q266.06 45.28 267.35 43.96Q268.64 42.65 268.64 40.24V32.96Q268.64 30.5 267.35 29.21Q266.06 27.92 263.6 27.92Q261.19 27.92 259.88 29.21Q258.56 30.5 258.56 32.96V40.24Q258.56 42.65 259.88 43.96Q261.19 45.28 263.6 45.28ZM294.96 52.56Q288.74 52.56 285.24 49.2Q281.74 45.84 281.74 40.02V21.2H290.14V39.96Q290.14 42.54 291.38 43.91Q292.61 45.28 294.96 45.28Q297.26 45.28 298.52 43.91Q299.78 42.54 299.78 39.96V21.2H308.18V40.02Q308.18 45.9 304.65 49.23Q301.12 52.56 294.96 52.56ZM313.22 62.08V21.2H321.34V27.08H323.3L321.34 29.04Q321.34 25.06 323.52 22.85Q325.7 20.64 329.51 20.64Q334.16 20.64 336.96 23.92Q339.76 27.19 339.76 32.68V40.52Q339.76 44.16 338.5 46.88Q337.24 49.59 334.94 51.08Q332.65 52.56 329.51 52.56Q325.7 52.56 323.52 50.35Q321.34 48.14 321.34 44.16L323.3 46.12H321.34L321.62 53.68V62.08ZM326.49 45.28Q328.84 45.28 330.1 43.96Q331.36 42.65 331.36 40.24V32.96Q331.36 30.5 330.1 29.21Q328.84 27.92 326.49 27.92Q324.19 27.92 322.9 29.24Q321.62 30.55 321.62 32.96V40.24Q321.62 42.65 322.9 43.96Q324.19 45.28 326.49 45.28ZM357.74 52.56Q353.65 52.56 350.6 51.02Q347.54 49.48 345.89 46.71Q344.24 43.94 344.24 40.24V32.96Q344.24 29.26 345.89 26.49Q347.54 23.72 350.6 22.18Q353.65 20.64 357.74 20.64Q361.82 20.64 364.82 22.18Q367.82 23.72 369.47 26.49Q371.12 29.26 371.12 32.96V38.56H352.25V40.24Q352.25 43.15 353.65 44.64Q355.05 46.12 357.85 46.12Q359.81 46.12 361.01 45.45Q362.22 44.78 362.61 43.6H370.84Q369.83 47.63 366.28 50.1Q362.72 52.56 357.74 52.56ZM363.11 34.25V32.85Q363.11 29.99 361.8 28.48Q360.48 26.97 357.74 26.97Q354.99 26.97 353.62 28.54Q352.25 30.1 352.25 32.96V33.8L363.67 33.69Z" fill="#0C0F14"/></g><path d="M87 230V205.18H101.88V208.88H91.18V215.33H100.69V219.02H91.18V226.3H101.88V230ZM104.94 230 111.47 220.34 105.37 211.3H110.19L113.08 215.89Q113.34 216.3 113.57 216.8Q113.8 217.3 113.93 217.62Q114.06 217.3 114.3 216.8Q114.54 216.3 114.78 215.89L117.68 211.3H122.48L116.4 220.35L122.9 230H118.08L114.82 224.87Q114.57 224.44 114.33 223.93Q114.08 223.42 113.93 223.09Q113.8 223.42 113.55 223.93Q113.31 224.44 113.04 224.87L109.75 230ZM131.56 230.34Q128.67 230.34 127 228.82Q125.33 227.29 125.33 224.69Q125.33 221.95 127.18 220.45Q129.03 218.94 132.38 218.94H137.04V217.35Q137.04 215.99 136.17 215.23Q135.29 214.46 133.74 214.46Q132.36 214.46 131.44 215.07Q130.51 215.68 130.34 216.73H126.18Q126.49 214.07 128.57 212.52Q130.65 210.96 133.87 210.96Q137.3 210.96 139.3 212.68Q141.3 214.39 141.3 217.31V230H137.17V226.73H136.48L137.19 225.82Q137.19 227.91 135.65 229.12Q134.11 230.34 131.56 230.34ZM132.97 227.15Q134.76 227.15 135.9 226.23Q137.04 225.31 137.04 223.85V221.58H132.47Q131.15 221.58 130.37 222.32Q129.59 223.06 129.59 224.3Q129.59 225.62 130.48 226.39Q131.38 227.15 132.97 227.15ZM153.48 230.34Q151.09 230.34 149.3 229.44Q147.51 228.54 146.53 226.89Q145.55 225.23 145.55 223V218.3Q145.55 216.04 146.53 214.4Q147.51 212.76 149.3 211.86Q151.09 210.96 153.48 210.96Q156.98 210.96 159.1 212.77Q161.21 214.59 161.33 217.72H157.08Q156.97 216.27 156.03 215.47Q155.08 214.67 153.48 214.67Q151.75 214.67 150.78 215.6Q149.81 216.53 149.81 218.28V223Q149.81 224.73 150.78 225.68Q151.75 226.63 153.48 226.63Q155.08 226.63 156.03 225.83Q156.97 225.03 157.08 223.58H161.33Q161.21 226.71 159.1 228.53Q156.98 230.34 153.48 230.34ZM175.12 230Q172.45 230 170.94 228.51Q169.42 227.02 169.42 224.37V215.14H164.35V211.3H169.42V206.03H173.68V211.3H180.86V215.14H173.68V224.37Q173.68 226.16 175.42 226.16H180.52V230ZM195.65 230Q193.82 230 192.43 229.24Q191.05 228.49 190.28 227.12Q189.51 225.75 189.51 223.93V209.02H183.52V205.18H193.77V223.93Q193.77 224.95 194.36 225.55Q194.96 226.16 195.95 226.16H201.6V230ZM207.95 236.12 210.59 228.98 203.61 211.3H208.27L211.72 220.87Q212 221.65 212.27 222.75Q212.55 223.84 212.7 224.55Q212.86 223.84 213.13 222.75Q213.41 221.65 213.67 220.87L216.96 211.3H221.43L212.43 236.12ZM254 230Q251.33 230 249.82 228.51Q248.3 227.02 248.3 224.37V215.14H243.23V211.3H248.3V206.03H252.56V211.3H259.74V215.14H252.56V224.37Q252.56 226.16 254.3 226.16H259.4V230ZM264.09 230V205.18H268.34V211.3L268.24 214.87H269.39L268.24 215.86Q268.24 213.55 269.59 212.26Q270.94 210.96 273.26 210.96Q276.03 210.96 277.68 212.79Q279.34 214.63 279.34 217.72V230H275.08V218.16Q275.08 216.47 274.19 215.54Q273.3 214.62 271.72 214.62Q270.14 214.62 269.24 215.58Q268.34 216.54 268.34 218.3V230ZM291.42 230.34Q289.05 230.34 287.28 229.43Q285.51 228.51 284.55 226.86Q283.59 225.2 283.59 223V218.3Q283.59 216.08 284.55 214.44Q285.51 212.79 287.28 211.87Q289.05 210.96 291.42 210.96Q293.79 210.96 295.54 211.87Q297.29 212.79 298.25 214.44Q299.21 216.08 299.21 218.3V221.66H287.68V223Q287.68 224.95 288.64 225.97Q289.6 226.98 291.46 226.98Q292.89 226.98 293.77 226.48Q294.65 225.98 294.89 225.04H299.08Q298.59 227.45 296.51 228.89Q294.42 230.34 291.42 230.34ZM295.12 219.28V218.26Q295.12 216.33 294.2 215.3Q293.27 214.27 291.42 214.27Q289.58 214.27 288.63 215.32Q287.68 216.37 287.68 218.3V219.01L295.42 218.97ZM330.14 230.31Q328 230.31 326.4 229.64Q324.8 228.96 323.89 227.76Q322.97 226.55 322.9 224.91H327.16Q327.24 225.8 328.04 226.33Q328.85 226.86 330.14 226.86H331.61Q333.17 226.86 333.97 226.25Q334.76 225.65 334.76 224.61Q334.76 223.62 334.05 223.06Q333.34 222.5 331.9 222.3L329.58 221.97Q326.39 221.52 324.9 220.27Q323.41 219.02 323.41 216.52Q323.41 213.88 325.16 212.43Q326.92 210.99 330.35 210.99H331.65Q334.77 210.99 336.64 212.39Q338.51 213.78 338.65 216.14H334.4Q334.31 215.38 333.59 214.91Q332.86 214.44 331.65 214.44H330.35Q328.9 214.44 328.23 214.96Q327.56 215.48 327.56 216.51Q327.56 217.45 328.15 217.91Q328.74 218.38 330.02 218.58L332.44 218.92Q335.76 219.38 337.34 220.69Q338.92 222 338.92 224.55Q338.92 227.29 337.08 228.8Q335.24 230.31 331.61 230.31ZM342.97 236.12V211.3H347.12V214.87H348.07L347.12 215.86Q347.12 213.56 348.49 212.26Q349.85 210.96 352.16 210.96Q354.98 210.96 356.67 212.89Q358.37 214.83 358.37 218.11V223.17Q358.37 225.35 357.6 226.97Q356.84 228.58 355.45 229.46Q354.06 230.34 352.16 230.34Q349.86 230.34 348.49 229.03Q347.12 227.72 347.12 225.44L348.07 226.43H347.1L347.22 230.88V236.12ZM350.66 226.65Q352.3 226.65 353.21 225.71Q354.11 224.76 354.11 223V218.3Q354.11 216.52 353.21 215.58Q352.3 214.65 350.66 214.65Q349.07 214.65 348.15 215.61Q347.22 216.57 347.22 218.3V223Q347.22 224.73 348.15 225.69Q349.07 226.65 350.66 226.65ZM368.2 230.34Q365.31 230.34 363.64 228.82Q361.97 227.29 361.97 224.69Q361.97 221.95 363.82 220.45Q365.67 218.94 369.02 218.94H373.68V217.35Q373.68 215.99 372.81 215.23Q371.93 214.46 370.38 214.46Q369 214.46 368.08 215.07Q367.15 215.68 366.98 216.73H362.82Q363.13 214.07 365.21 212.52Q367.29 210.96 370.51 210.96Q373.94 210.96 375.94 212.68Q377.94 214.39 377.94 217.31V230H373.81V226.73H373.12L373.83 225.82Q373.83 227.91 372.29 229.12Q370.75 230.34 368.2 230.34ZM369.61 227.15Q371.4 227.15 372.54 226.23Q373.68 225.31 373.68 223.85V221.58H369.11Q367.79 221.58 367.01 222.32Q366.23 223.06 366.23 224.3Q366.23 225.62 367.12 226.39Q368.02 227.15 369.61 227.15ZM382.41 230V211.3H386.56V214.87H387.71L386.56 215.86Q386.56 213.55 387.91 212.26Q389.26 210.96 391.58 210.96Q394.35 210.96 396 212.79Q397.66 214.63 397.66 217.72V230H393.4V218.16Q393.4 216.47 392.51 215.56Q391.62 214.65 390.04 214.65Q388.46 214.65 387.56 215.59Q386.66 216.54 386.66 218.3V230ZM409.72 230.34Q408.27 230.34 407.4 229.48Q406.54 228.63 406.54 227.19Q406.54 225.7 407.4 224.84Q408.27 223.98 409.72 223.98Q411.19 223.98 412.05 224.84Q412.9 225.7 412.9 227.19Q412.9 228.63 412.05 229.48Q411.19 230.34 409.72 230.34Z" fill="#0C0F14"/><path d="M441.42 230V205.18H446.6L453.5 225.24Q453.42 224.15 453.3 222.67Q453.19 221.19 453.11 219.65Q453.04 218.12 453.04 216.93V205.18H456.9V230H451.72L444.87 209.94Q444.96 210.92 445.05 212.31Q445.13 213.7 445.21 215.17Q445.28 216.63 445.28 217.85V230ZM468.88 230.31Q466.5 230.31 464.75 229.41Q462.99 228.51 462.03 226.86Q461.07 225.2 461.07 222.97V218.33Q461.07 216.08 462.03 214.44Q462.99 212.79 464.75 211.89Q466.5 210.99 468.88 210.99Q471.28 210.99 473.02 211.89Q474.77 212.79 475.73 214.44Q476.69 216.08 476.69 218.31V222.97Q476.69 225.2 475.73 226.86Q474.77 228.51 473.02 229.41Q471.28 230.31 468.88 230.31ZM468.88 226.6Q470.59 226.6 471.51 225.66Q472.43 224.73 472.43 222.97V218.33Q472.43 216.55 471.51 215.63Q470.59 214.7 468.88 214.7Q467.21 214.7 466.27 215.63Q465.33 216.55 465.33 218.33V222.97Q465.33 224.73 466.27 225.66Q467.21 226.6 468.88 226.6ZM490.64 230Q487.97 230 486.46 228.51Q484.94 227.02 484.94 224.37V215.14H479.87V211.3H484.94V206.03H489.2V211.3H496.38V215.14H489.2V224.37Q489.2 226.16 490.94 226.16H496.04V230ZM500.73 230V205.18H504.98V211.3L504.88 214.87H506.03L504.88 215.86Q504.88 213.55 506.23 212.26Q507.58 210.96 509.9 210.96Q512.67 210.96 514.32 212.79Q515.98 214.63 515.98 217.72V230H511.72V218.16Q511.72 216.47 510.83 215.54Q509.94 214.62 508.36 214.62Q506.78 214.62 505.88 215.58Q504.98 216.54 504.98 218.3V230ZM520.43 230V226.14H526.96V215.14H521.28V211.3H531.02V226.14H536.81V230ZM528.65 208.17Q527.37 208.17 526.61 207.51Q525.86 206.86 525.86 205.73Q525.86 204.59 526.61 203.93Q527.37 203.26 528.65 203.26Q529.93 203.26 530.69 203.93Q531.44 204.59 531.44 205.73Q531.44 206.86 530.69 207.51Q529.93 208.17 528.65 208.17ZM540.17 230V211.3H544.32V214.87H545.47L544.32 215.86Q544.32 213.55 545.67 212.26Q547.02 210.96 549.34 210.96Q552.11 210.96 553.76 212.79Q555.42 214.63 555.42 217.72V230H551.16V218.16Q551.16 216.47 550.27 215.56Q549.38 214.65 547.8 214.65Q546.22 214.65 545.32 215.59Q544.42 216.54 544.42 218.3V230ZM562.44 236.12V232.58H567.99Q569.42 232.58 570.14 231.89Q570.86 231.2 570.86 229.9V228.5L570.93 225H569.98L570.92 224.09Q570.92 226.35 569.58 227.63Q568.23 228.91 565.94 228.91Q563.09 228.91 561.4 226.97Q559.72 225.04 559.72 221.74V218.11Q559.72 214.84 561.4 212.9Q563.09 210.96 565.94 210.96Q568.23 210.96 569.58 212.24Q570.92 213.52 570.92 215.78L569.98 214.87H570.92L570.82 211.3H575.06V230Q575.06 232.84 573.19 234.48Q571.32 236.12 568.07 236.12ZM567.39 225.22Q569 225.22 569.91 224.26Q570.82 223.3 570.82 221.57V218.3Q570.82 216.57 569.91 215.61Q569 214.65 567.39 214.65Q565.75 214.65 564.86 215.59Q563.97 216.54 563.97 218.3V221.57Q563.97 223.33 564.86 224.28Q565.75 225.22 567.39 225.22ZM598.49 230V211.3H601.95V213.82H602.68L602.1 214.44Q602.1 212.86 602.99 211.91Q603.87 210.96 605.26 210.96Q606.76 210.96 607.59 212.18Q608.42 213.39 608.42 215.48L607.68 213.82H608.83L608.39 214.44Q608.39 212.86 609.26 211.91Q610.14 210.96 611.61 210.96Q613.34 210.96 614.35 212.26Q615.37 213.55 615.37 215.75V230H611.64V215.93Q611.64 215 611.23 214.48Q610.83 213.96 610.06 213.96Q609.3 213.96 608.88 214.47Q608.46 214.98 608.46 215.92V230H605.4V215.93Q605.4 214.98 604.98 214.47Q604.56 213.96 603.79 213.96Q603.02 213.96 602.62 214.47Q602.22 214.98 602.22 215.92V230ZM626.64 230.31Q624.26 230.31 622.51 229.41Q620.75 228.51 619.79 226.86Q618.83 225.2 618.83 222.97V218.33Q618.83 216.08 619.79 214.44Q620.75 212.79 622.51 211.89Q624.26 210.99 626.64 210.99Q629.04 210.99 630.78 211.89Q632.53 212.79 633.49 214.44Q634.45 216.08 634.45 218.31V222.97Q634.45 225.2 633.49 226.86Q632.53 228.51 630.78 229.41Q629.04 230.31 626.64 230.31ZM626.64 226.6Q628.35 226.6 629.27 225.66Q630.19 224.73 630.19 222.97V218.33Q630.19 216.55 629.27 215.63Q628.35 214.7 626.64 214.7Q624.97 214.7 624.03 215.63Q623.09 216.55 623.09 218.33V222.97Q623.09 224.73 624.03 225.66Q624.97 226.6 626.64 226.6ZM639.36 230V211.3H643.38V214.87H644.44L643.17 217.06Q643.17 214.03 644.53 212.5Q645.89 210.96 648.53 210.96Q651.57 210.96 653.3 212.82Q655.03 214.69 655.03 217.99V219.35H650.58V218.3Q650.58 216.49 649.65 215.5Q648.72 214.52 647.08 214.52Q645.42 214.52 644.52 215.51Q643.61 216.5 643.61 218.3V230ZM666.1 230.34Q663.73 230.34 661.96 229.43Q660.19 228.51 659.23 226.86Q658.27 225.2 658.27 223V218.3Q658.27 216.08 659.23 214.44Q660.19 212.79 661.96 211.87Q663.73 210.96 666.1 210.96Q668.47 210.96 670.22 211.87Q671.97 212.79 672.93 214.44Q673.89 216.08 673.89 218.3V221.66H662.36V223Q662.36 224.95 663.32 225.97Q664.28 226.98 666.14 226.98Q667.57 226.98 668.45 226.48Q669.33 225.98 669.57 225.04H673.76Q673.27 227.45 671.19 228.89Q669.1 230.34 666.1 230.34ZM669.8 219.28V218.26Q669.8 216.33 668.88 215.3Q667.95 214.27 666.1 214.27Q664.26 214.27 663.31 215.32Q662.36 216.37 662.36 218.3V219.01L670.1 218.97ZM685.8 230.34Q684.35 230.34 683.48 229.48Q682.62 228.63 682.62 227.19Q682.62 225.7 683.48 224.84Q684.35 223.98 685.8 223.98Q687.27 223.98 688.13 224.84Q688.98 225.7 688.98 227.19Q688.98 228.63 688.13 229.48Q687.27 230.34 685.8 230.34Z" fill="#3A6600"/><path d="M85.1 276 89.28 259.94H91.94L96.1 276H94.1L93.04 271.73H88.18L87.12 276ZM88.58 270.06H92.62L91.39 265.11Q91.04 263.7 90.84 262.76Q90.64 261.81 90.6 261.52Q90.56 261.81 90.36 262.76Q90.16 263.7 89.81 265.09ZM99.22 276V263.9H101.2V266.21H101.62L101.2 266.67Q101.2 265.24 102.06 264.46Q102.92 263.68 104.44 263.68Q106.26 263.68 107.34 264.8Q108.42 265.92 108.42 267.86V276H106.44V268.08Q106.44 266.78 105.75 266.09Q105.05 265.4 103.87 265.4Q102.63 265.4 101.92 266.14Q101.2 266.89 101.2 268.3V276ZM130.2 276.18Q128.75 276.18 127.69 275.63Q126.64 275.08 126.05 274.03Q125.47 272.99 125.47 271.56V268.34Q125.47 266.89 126.05 265.86Q126.64 264.82 127.69 264.27Q128.75 263.72 130.2 263.72Q131.65 263.72 132.71 264.27Q133.76 264.82 134.35 265.86Q134.93 266.89 134.93 268.32V271.56Q134.93 272.99 134.35 274.03Q133.76 275.08 132.71 275.63Q131.65 276.18 130.2 276.18ZM130.2 274.42Q131.5 274.42 132.22 273.69Q132.95 272.96 132.95 271.56V268.34Q132.95 266.94 132.22 266.21Q131.5 265.48 130.2 265.48Q128.92 265.48 128.19 266.21Q127.45 266.94 127.45 268.34V271.56Q127.45 272.96 128.19 273.69Q128.92 274.42 130.2 274.42ZM138.82 276V263.9H140.8V266.21H141.22L140.8 266.67Q140.8 265.24 141.66 264.46Q142.52 263.68 144.04 263.68Q145.86 263.68 146.94 264.8Q148.02 265.92 148.02 267.86V276H146.04V268.08Q146.04 266.78 145.35 266.09Q144.65 265.4 143.47 265.4Q142.23 265.4 141.52 266.14Q140.8 266.89 140.8 268.3V276ZM153.08 269.62V267.86H160.12V269.62ZM169.1 276.22Q167.29 276.22 166.18 275.01Q165.07 273.8 165.07 271.73V268.19Q165.07 266.1 166.17 264.89Q167.27 263.68 169.1 263.68Q170.59 263.68 171.49 264.49Q172.4 265.31 172.4 266.67L172 266.21H172.44L172.4 263.46V259.94H174.38V276H172.4V273.69H172L172.4 273.23Q172.4 274.61 171.49 275.42Q170.59 276.22 169.1 276.22ZM169.76 274.5Q170.99 274.5 171.69 273.73Q172.4 272.96 172.4 271.6V268.3Q172.4 266.94 171.69 266.17Q170.99 265.4 169.76 265.4Q168.5 265.4 167.78 266.14Q167.05 266.89 167.05 268.3V271.6Q167.05 273.01 167.78 273.76Q168.5 274.5 169.76 274.5ZM183 276.22Q181.57 276.22 180.5 275.65Q179.44 275.08 178.85 274.03Q178.27 272.99 178.27 271.6V268.3Q178.27 266.89 178.85 265.86Q179.44 264.82 180.5 264.25Q181.57 263.68 183 263.68Q184.43 263.68 185.5 264.25Q186.56 264.82 187.15 265.86Q187.73 266.89 187.73 268.3V270.43H180.21V271.6Q180.21 273.03 180.93 273.79Q181.66 274.55 183 274.55Q184.14 274.55 184.85 274.14Q185.55 273.73 185.71 272.92H187.69Q187.49 274.44 186.2 275.33Q184.91 276.22 183 276.22ZM185.79 269.11V268.3Q185.79 266.87 185.08 266.1Q184.36 265.33 183 265.33Q181.66 265.33 180.93 266.1Q180.21 266.87 180.21 268.3V268.94H185.95ZM191.05 276V263.9H192.79V265.35H193.19L192.88 265.88Q192.88 264.87 193.42 264.27Q193.96 263.68 194.88 263.68Q195.89 263.68 196.44 264.43Q196.99 265.18 196.99 266.54L196.4 265.35H197.32L196.9 265.88Q196.9 264.87 197.46 264.27Q198.03 263.68 198.95 263.68Q200.09 263.68 200.72 264.54Q201.35 265.4 201.35 266.8V276H199.52V266.78Q199.52 266.03 199.2 265.62Q198.88 265.2 198.27 265.2Q197.67 265.2 197.33 265.61Q196.99 266.01 196.99 266.76V276H195.41V266.78Q195.41 266.01 195.07 265.61Q194.73 265.2 194.11 265.2Q193.49 265.2 193.19 265.61Q192.88 266.01 192.88 266.76V276ZM208.34 276.22Q206.43 276.22 205.33 275.24Q204.23 274.26 204.23 272.59Q204.23 270.9 205.33 269.93Q206.43 268.96 208.3 268.96H212.04V267.75Q212.04 266.63 211.37 266.02Q210.7 265.42 209.47 265.42Q208.39 265.42 207.66 265.87Q206.94 266.32 206.83 267.09H204.85Q205.04 265.53 206.32 264.6Q207.6 263.68 209.51 263.68Q211.6 263.68 212.81 264.76Q214.02 265.84 214.02 267.68V276H212.08V273.69H211.75L212.08 273.36Q212.08 274.68 211.06 275.45Q210.04 276.22 208.34 276.22ZM208.83 274.66Q210.24 274.66 211.14 273.95Q212.04 273.25 212.04 272.15V270.43H208.34Q207.35 270.43 206.78 270.98Q206.21 271.53 206.21 272.48Q206.21 273.49 206.9 274.08Q207.6 274.66 208.83 274.66ZM218.02 276V263.9H220V266.21H220.42L220 266.67Q220 265.24 220.86 264.46Q221.72 263.68 223.24 263.68Q225.06 263.68 226.14 264.8Q227.22 265.92 227.22 267.86V276H225.24V268.08Q225.24 266.78 224.55 266.09Q223.85 265.4 222.67 265.4Q221.43 265.4 220.72 266.14Q220 266.89 220 268.3V276ZM235.1 276.22Q233.29 276.22 232.18 275.01Q231.07 273.8 231.07 271.73V268.19Q231.07 266.1 232.17 264.89Q233.27 263.68 235.1 263.68Q236.59 263.68 237.49 264.49Q238.4 265.31 238.4 266.67L238 266.21H238.44L238.4 263.46V259.94H240.38V276H238.4V273.69H238L238.4 273.23Q238.4 274.61 237.49 275.42Q236.59 276.22 235.1 276.22ZM235.76 274.5Q236.99 274.5 237.69 273.73Q238.4 272.96 238.4 271.6V268.3Q238.4 266.94 237.69 266.17Q236.99 265.4 235.76 265.4Q234.5 265.4 233.78 266.14Q233.05 266.89 233.05 268.3V271.6Q233.05 273.01 233.78 273.76Q234.5 274.5 235.76 274.5ZM262.29 276.22Q260.84 276.22 259.75 275.67Q258.66 275.12 258.06 274.07Q257.47 273.03 257.47 271.6V268.3Q257.47 266.85 258.06 265.81Q258.66 264.78 259.75 264.23Q260.84 263.68 262.29 263.68Q264.38 263.68 265.65 264.8Q266.93 265.92 267 267.86H265.02Q264.95 266.69 264.23 266.07Q263.52 265.44 262.29 265.44Q260.99 265.44 260.22 266.18Q259.45 266.91 259.45 268.28V271.6Q259.45 272.96 260.22 273.71Q260.99 274.46 262.29 274.46Q263.52 274.46 264.23 273.82Q264.95 273.18 265.02 272.04H267Q266.93 273.98 265.65 275.1Q264.38 276.22 262.29 276.22ZM275.4 276.18Q273.95 276.18 272.89 275.63Q271.84 275.08 271.25 274.03Q270.67 272.99 270.67 271.56V268.34Q270.67 266.89 271.25 265.86Q271.84 264.82 272.89 264.27Q273.95 263.72 275.4 263.72Q276.85 263.72 277.91 264.27Q278.96 264.82 279.55 265.86Q280.13 266.89 280.13 268.32V271.56Q280.13 272.99 279.55 274.03Q278.96 275.08 277.91 275.63Q276.85 276.18 275.4 276.18ZM275.4 274.42Q276.7 274.42 277.42 273.69Q278.15 272.96 278.15 271.56V268.34Q278.15 266.94 277.42 266.21Q276.7 265.48 275.4 265.48Q274.12 265.48 273.39 266.21Q272.65 266.94 272.65 268.34V271.56Q272.65 272.96 273.39 273.69Q274.12 274.42 275.4 274.42ZM287.9 276.22Q286.09 276.22 284.98 275.01Q283.87 273.8 283.87 271.73V268.19Q283.87 266.1 284.97 264.89Q286.07 263.68 287.9 263.68Q289.39 263.68 290.29 264.49Q291.2 265.31 291.2 266.67L290.8 266.21H291.24L291.2 263.46V259.94H293.18V276H291.2V273.69H290.8L291.2 273.23Q291.2 274.61 290.29 275.42Q289.39 276.22 287.9 276.22ZM288.56 274.5Q289.79 274.5 290.49 273.73Q291.2 272.96 291.2 271.6V268.3Q291.2 266.94 290.49 266.17Q289.79 265.4 288.56 265.4Q287.3 265.4 286.58 266.14Q285.85 266.89 285.85 268.3V271.6Q285.85 273.01 286.58 273.76Q287.3 274.5 288.56 274.5ZM301.8 276.22Q300.37 276.22 299.3 275.65Q298.24 275.08 297.65 274.03Q297.07 272.99 297.07 271.6V268.3Q297.07 266.89 297.65 265.86Q298.24 264.82 299.3 264.25Q300.37 263.68 301.8 263.68Q303.23 263.68 304.3 264.25Q305.36 264.82 305.95 265.86Q306.53 266.89 306.53 268.3V270.43H299.01V271.6Q299.01 273.03 299.73 273.79Q300.46 274.55 301.8 274.55Q302.94 274.55 303.65 274.14Q304.35 273.73 304.51 272.92H306.49Q306.29 274.44 305 275.33Q303.71 276.22 301.8 276.22ZM304.59 269.11V268.3Q304.59 266.87 303.88 266.1Q303.16 265.33 301.8 265.33Q300.46 265.33 299.73 266.1Q299.01 266.87 299.01 268.3V268.94H304.75ZM323.47 276V274.2H327.76V265.7H324.02V263.9H329.74V274.2H333.81V276ZM328.53 261.72Q327.8 261.72 327.39 261.35Q326.97 260.97 326.97 260.34Q326.97 259.68 327.39 259.29Q327.8 258.91 328.53 258.91Q329.26 258.91 329.67 259.29Q330.09 259.68 330.09 260.34Q330.09 260.97 329.67 261.35Q329.26 261.72 328.53 261.72ZM336.82 276V263.9H338.8V266.21H339.22L338.8 266.67Q338.8 265.24 339.66 264.46Q340.52 263.68 342.04 263.68Q343.86 263.68 344.94 264.8Q346.02 265.92 346.02 267.86V276H344.04V268.08Q344.04 266.78 343.35 266.09Q342.65 265.4 341.47 265.4Q340.23 265.4 339.52 266.14Q338.8 266.89 338.8 268.3V276ZM353.9 276.22Q352.09 276.22 350.98 275.01Q349.87 273.8 349.87 271.73V268.19Q349.87 266.1 350.97 264.89Q352.07 263.68 353.9 263.68Q355.39 263.68 356.29 264.49Q357.2 265.31 357.2 266.67L356.8 266.21H357.24L357.2 263.46V259.94H359.18V276H357.2V273.69H356.8L357.2 273.23Q357.2 274.61 356.29 275.42Q355.39 276.22 353.9 276.22ZM354.56 274.5Q355.79 274.5 356.49 273.73Q357.2 272.96 357.2 271.6V268.3Q357.2 266.94 356.49 266.17Q355.79 265.4 354.56 265.4Q353.3 265.4 352.58 266.14Q351.85 266.89 351.85 268.3V271.6Q351.85 273.01 352.58 273.76Q353.3 274.5 354.56 274.5ZM367.8 276.22Q366.37 276.22 365.3 275.65Q364.24 275.08 363.65 274.03Q363.07 272.99 363.07 271.6V268.3Q363.07 266.89 363.65 265.86Q364.24 264.82 365.3 264.25Q366.37 263.68 367.8 263.68Q369.23 263.68 370.3 264.25Q371.36 264.82 371.95 265.86Q372.53 266.89 372.53 268.3V270.43H365.01V271.6Q365.01 273.03 365.73 273.79Q366.46 274.55 367.8 274.55Q368.94 274.55 369.65 274.14Q370.35 273.73 370.51 272.92H372.49Q372.29 274.44 371 275.33Q369.71 276.22 367.8 276.22ZM370.59 269.11V268.3Q370.59 266.87 369.88 266.1Q369.16 265.33 367.8 265.33Q366.46 265.33 365.73 266.1Q365.01 266.87 365.01 268.3V268.94H370.75ZM375.5 276 379.79 269.77 375.76 263.9H378.1L380.49 267.64Q380.65 267.88 380.79 268.17Q380.93 268.45 381.02 268.63Q381.09 268.45 381.23 268.17Q381.37 267.88 381.53 267.64L383.95 263.9H386.26L382.23 269.8L386.5 276H384.17L381.57 272.04Q381.42 271.8 381.27 271.48Q381.13 271.16 381.02 270.96Q380.93 271.16 380.77 271.48Q380.6 271.8 380.43 272.04L377.81 276ZM405.64 276V266.91H402.12V265.11H405.64V263.02Q405.64 261.59 406.54 260.76Q407.44 259.94 409.03 259.94H412.57V261.74H409.03Q408.35 261.74 407.98 262.06Q407.62 262.38 407.62 263.02V265.11H412.57V266.91H407.62V276ZM420.6 276.18Q419.15 276.18 418.09 275.63Q417.04 275.08 416.45 274.03Q415.87 272.99 415.87 271.56V268.34Q415.87 266.89 416.45 265.86Q417.04 264.82 418.09 264.27Q419.15 263.72 420.6 263.72Q422.05 263.72 423.11 264.27Q424.16 264.82 424.75 265.86Q425.33 266.89 425.33 268.32V271.56Q425.33 272.99 424.75 274.03Q424.16 275.08 423.11 275.63Q422.05 276.18 420.6 276.18ZM420.6 274.42Q421.9 274.42 422.62 273.69Q423.35 272.96 423.35 271.56V268.34Q423.35 266.94 422.62 266.21Q421.9 265.48 420.6 265.48Q419.32 265.48 418.59 266.21Q417.85 266.94 417.85 268.34V271.56Q417.85 272.96 418.59 273.69Q419.32 274.42 420.6 274.42ZM429.64 276V263.9H431.58V266.21H432.04L431.4 267.64Q431.4 265.68 432.25 264.68Q433.1 263.68 434.77 263.68Q436.68 263.68 437.81 264.88Q438.95 266.08 438.95 268.12V268.85H436.97V268.3Q436.97 266.87 436.27 266.11Q435.58 265.35 434.31 265.35Q433.05 265.35 432.34 266.12Q431.62 266.89 431.62 268.3V276ZM454.7 276 458.88 259.94H461.54L465.7 276H463.7L462.64 271.73H457.78L456.72 276ZM458.18 270.06H462.22L460.99 265.11Q460.64 263.7 460.44 262.76Q460.24 261.81 460.2 261.52Q460.16 261.81 459.96 262.76Q459.76 263.7 459.41 265.09ZM469.11 276V274.2H472.39V261.74H469.11V259.94H477.69V261.74H474.41V274.2H477.69V276ZM499.89 276.22Q498.44 276.22 497.35 275.67Q496.26 275.12 495.66 274.07Q495.07 273.03 495.07 271.6V268.3Q495.07 266.85 495.66 265.81Q496.26 264.78 497.35 264.23Q498.44 263.68 499.89 263.68Q501.98 263.68 503.25 264.8Q504.53 265.92 504.6 267.86H502.62Q502.55 266.69 501.83 266.07Q501.12 265.44 499.89 265.44Q498.59 265.44 497.82 266.18Q497.05 266.91 497.05 268.28V271.6Q497.05 272.96 497.82 273.71Q498.59 274.46 499.89 274.46Q501.12 274.46 501.83 273.82Q502.55 273.18 502.62 272.04H504.6Q504.53 273.98 503.25 275.1Q501.98 276.22 499.89 276.22ZM513 276.18Q511.55 276.18 510.49 275.63Q509.44 275.08 508.85 274.03Q508.27 272.99 508.27 271.56V268.34Q508.27 266.89 508.85 265.86Q509.44 264.82 510.49 264.27Q511.55 263.72 513 263.72Q514.45 263.72 515.51 264.27Q516.56 264.82 517.15 265.86Q517.73 266.89 517.73 268.32V271.56Q517.73 272.99 517.15 274.03Q516.56 275.08 515.51 275.63Q514.45 276.18 513 276.18ZM513 274.42Q514.3 274.42 515.02 273.69Q515.75 272.96 515.75 271.56V268.34Q515.75 266.94 515.02 266.21Q514.3 265.48 513 265.48Q511.72 265.48 510.99 266.21Q510.25 266.94 510.25 268.34V271.56Q510.25 272.96 510.99 273.69Q511.72 274.42 513 274.42ZM525.5 276.22Q523.69 276.22 522.58 275.01Q521.47 273.8 521.47 271.73V268.19Q521.47 266.1 522.57 264.89Q523.67 263.68 525.5 263.68Q526.99 263.68 527.89 264.49Q528.8 265.31 528.8 266.67L528.4 266.21H528.84L528.8 263.46V259.94H530.78V276H528.8V273.69H528.4L528.8 273.23Q528.8 274.61 527.89 275.42Q526.99 276.22 525.5 276.22ZM526.16 274.5Q527.39 274.5 528.09 273.73Q528.8 272.96 528.8 271.6V268.3Q528.8 266.94 528.09 266.17Q527.39 265.4 526.16 265.4Q524.9 265.4 524.18 266.14Q523.45 266.89 523.45 268.3V271.6Q523.45 273.01 524.18 273.76Q524.9 274.5 526.16 274.5ZM534.67 276V274.2H538.96V265.7H535.22V263.9H540.94V274.2H545.01V276ZM539.73 261.72Q539 261.72 538.59 261.35Q538.17 260.97 538.17 260.34Q538.17 259.68 538.59 259.29Q539 258.91 539.73 258.91Q540.46 258.91 540.87 259.29Q541.29 259.68 541.29 260.34Q541.29 260.97 540.87 261.35Q540.46 261.72 539.73 261.72ZM548.02 276V263.9H550V266.21H550.42L550 266.67Q550 265.24 550.86 264.46Q551.72 263.68 553.24 263.68Q555.06 263.68 556.14 264.8Q557.22 265.92 557.22 267.86V276H555.24V268.08Q555.24 266.78 554.55 266.09Q553.85 265.4 552.67 265.4Q551.43 265.4 550.72 266.14Q550 266.89 550 268.3V276ZM562.74 279.96V278.16H566.59Q567.52 278.16 567.94 277.74Q568.37 277.32 568.37 276.44V274.9L568.42 272.7H568.02L568.4 272.37Q568.4 273.69 567.52 274.46Q566.64 275.23 565.16 275.23Q563.29 275.23 562.21 274.01Q561.14 272.79 561.14 270.72V268.17Q561.14 266.1 562.21 264.89Q563.29 263.68 565.16 263.68Q566.64 263.68 567.52 264.45Q568.4 265.22 568.4 266.54L568.02 266.21H568.4V263.9H570.35V276.44Q570.35 278.07 569.35 279.01Q568.35 279.96 566.57 279.96ZM565.76 273.51Q566.99 273.51 567.69 272.74Q568.4 271.97 568.4 270.61V268.3Q568.4 266.94 567.69 266.17Q566.99 265.4 565.76 265.4Q564.5 265.4 563.81 266.14Q563.12 266.89 563.12 268.3V270.61Q563.12 272.02 563.81 272.77Q564.5 273.51 565.76 273.51ZM591.14 276.22Q589.23 276.22 588.13 275.24Q587.03 274.26 587.03 272.59Q587.03 270.9 588.13 269.93Q589.23 268.96 591.1 268.96H594.84V267.75Q594.84 266.63 594.17 266.02Q593.5 265.42 592.27 265.42Q591.19 265.42 590.46 265.87Q589.74 266.32 589.63 267.09H587.65Q587.84 265.53 589.12 264.6Q590.4 263.68 592.31 263.68Q594.4 263.68 595.61 264.76Q596.82 265.84 596.82 267.68V276H594.88V273.69H594.55L594.88 273.36Q594.88 274.68 593.86 275.45Q592.84 276.22 591.14 276.22ZM591.63 274.66Q593.04 274.66 593.94 273.95Q594.84 273.25 594.84 272.15V270.43H591.14Q590.15 270.43 589.58 270.98Q589.01 271.53 589.01 272.48Q589.01 273.49 589.7 274.08Q590.4 274.66 591.63 274.66ZM602.34 279.96V278.16H606.19Q607.12 278.16 607.54 277.74Q607.97 277.32 607.97 276.44V274.9L608.02 272.7H607.62L608 272.37Q608 273.69 607.12 274.46Q606.24 275.23 604.76 275.23Q602.89 275.23 601.81 274.01Q600.74 272.79 600.74 270.72V268.17Q600.74 266.1 601.81 264.89Q602.89 263.68 604.76 263.68Q606.24 263.68 607.12 264.45Q608 265.22 608 266.54L607.62 266.21H608V263.9H609.95V276.44Q609.95 278.07 608.95 279.01Q607.95 279.96 606.17 279.96ZM605.36 273.51Q606.59 273.51 607.29 272.74Q608 271.97 608 270.61V268.3Q608 266.94 607.29 266.17Q606.59 265.4 605.36 265.4Q604.1 265.4 603.41 266.14Q602.72 266.89 602.72 268.3V270.61Q602.72 272.02 603.41 272.77Q604.1 273.51 605.36 273.51ZM618.6 276.22Q617.17 276.22 616.1 275.65Q615.04 275.08 614.45 274.03Q613.87 272.99 613.87 271.6V268.3Q613.87 266.89 614.45 265.86Q615.04 264.82 616.1 264.25Q617.17 263.68 618.6 263.68Q620.03 263.68 621.1 264.25Q622.16 264.82 622.75 265.86Q623.33 266.89 623.33 268.3V270.43H615.81V271.6Q615.81 273.03 616.53 273.79Q617.26 274.55 618.6 274.55Q619.74 274.55 620.45 274.14Q621.15 273.73 621.31 272.92H623.29Q623.09 274.44 621.8 275.33Q620.51 276.22 618.6 276.22ZM621.39 269.11V268.3Q621.39 266.87 620.68 266.1Q619.96 265.33 618.6 265.33Q617.26 265.33 616.53 266.1Q615.81 266.87 615.81 268.3V268.94H621.55ZM627.22 276V263.9H629.2V266.21H629.62L629.2 266.67Q629.2 265.24 630.06 264.46Q630.92 263.68 632.44 263.68Q634.26 263.68 635.34 264.8Q636.42 265.92 636.42 267.86V276H634.44V268.08Q634.44 266.78 633.75 266.09Q633.05 265.4 631.87 265.4Q630.63 265.4 629.92 266.14Q629.2 266.89 629.2 268.3V276ZM646.32 276Q644.76 276 643.89 275.16Q643.02 274.33 643.02 272.81V265.7H639.61V263.9H643.02V260.49H645V263.9H649.84V265.7H645V272.81Q645 274.2 646.32 274.2H649.62V276ZM657.83 276.18Q656.59 276.18 655.68 275.79Q654.77 275.41 654.23 274.7Q653.69 274 653.58 273.03H655.56Q655.69 273.67 656.28 274.04Q656.86 274.42 657.83 274.42H658.75Q659.92 274.42 660.49 273.94Q661.06 273.47 661.06 272.68Q661.06 271.91 660.54 271.46Q660.03 271.01 659.01 270.85L657.39 270.59Q655.6 270.28 654.74 269.48Q653.87 268.67 653.87 267.13Q653.87 265.51 654.9 264.62Q655.93 263.72 658 263.72H658.84Q660.58 263.72 661.63 264.54Q662.69 265.35 662.91 266.74H660.93Q660.8 266.17 660.27 265.82Q659.74 265.48 658.84 265.48H658Q656.88 265.48 656.36 265.9Q655.85 266.32 655.85 267.16Q655.85 267.9 656.29 268.26Q656.73 268.61 657.67 268.76L659.3 269.03Q661.26 269.33 662.15 270.17Q663.04 271.01 663.04 272.59Q663.04 274.26 661.97 275.22Q660.91 276.18 658.75 276.18ZM671.4 276.22Q670.56 276.22 670.07 275.74Q669.57 275.25 669.57 274.44Q669.57 273.58 670.07 273.07Q670.56 272.57 671.4 272.57Q672.24 272.57 672.73 273.07Q673.23 273.58 673.23 274.44Q673.23 275.25 672.73 275.74Q672.24 276.22 671.4 276.22Z" fill="#4A5260"/></svg>
